<svg
      width="32"
      height="32"
      viewBox="0 0 64 64"
      fill="none"
      xmlns="http://www.w3.org/2000/svg"
    >
      <rect width="64" height="64" rx="12" fill="white" />
      <path
        d="M29.5407 46.1705V10.1004C29.5407 9.08113 28.1944 8.71512 27.6784 9.59406L6.5005 45.6642C6.1091 46.3308 6.5898 47.1705 7.36285 47.1705H28.5407C29.093 47.1705 29.5407 46.7228 29.5407 46.1705Z"
        fill="#004236"
      />
      <path
        d="M34.2342 46.1705V6.83918C34.2342 5.80866 35.6044 5.45177 36.1072 6.35134L58.0879 45.6826C58.4604 46.3492 57.9785 47.1705 57.2149 47.1705H35.2342C34.6819 47.1705 34.2342 46.7228 34.2342 46.1705Z"
        fill="#004236"
      />
      <path
        d="M57.4685 51.0679H6.22076C5.5894 51.0679 5.11321 51.6483 5.30675 52.2493C7.07775 57.7484 12.7205 59.4649 15.4888 59.6231H48.2228C54.5738 59.116 57.4367 54.9914 58.3593 52.2095C58.5537 51.6232 58.0862 51.0679 57.4685 51.0679Z"
        fill="#004236"
      />
      <path
        d="M29.5407 46.1705V10.1004C29.5407 9.08113 28.1944 8.71512 27.6784 9.59406L6.5005 45.6642C6.1091 46.3308 6.5898 47.1705 7.36285 47.1705H28.5407C29.093 47.1705 29.5407 46.7228 29.5407 46.1705Z"
        stroke="#004236"
      />
      <path
        d="M34.2342 46.1705V6.83918C34.2342 5.80866 35.6044 5.45177 36.1072 6.35134L58.0879 45.6826C58.4604 46.3492 57.9785 47.1705 57.2149 47.1705H35.2342C34.6819 47.1705 34.2342 46.7228 34.2342 46.1705Z"
        stroke="#004236"
      />
      <path
        d="M57.4685 51.0679H6.22076C5.5894 51.0679 5.11321 51.6483 5.30675 52.2493C7.07775 57.7484 12.7205 59.4649 15.4888 59.6231H48.2228C54.5738 59.116 57.4367 54.9914 58.3593 52.2095C58.5537 51.6232 58.0862 51.0679 57.4685 51.0679Z"
        stroke="#004236"
      />
    </svg>